<svg width="358" height="348" viewBox="0 0 358 348" fill="none" xmlns="http://www.w3.org/2000/svg">
<path d="M314.475 31.7383C314.083 43.4933 313.299 54.4645 312.907 64.6522H232.916C233.7 57.5992 233.7 50.9381 233.7 44.6688V31.7383H314.475ZM225.073 110.105C228.602 98.3497 230.563 86.9866 232.131 76.4071H312.123C311.338 88.9457 310.162 100.309 308.986 110.105H225.073ZM155.669 200.618C190.959 177.891 210.565 149.68 221.152 121.468H307.809C304.28 145.369 299.967 159.084 294.87 164.177C291.733 166.92 288.988 167.704 282.714 167.704C275.656 167.704 258.011 166.528 247.032 165.745L246.64 172.406C256.835 173.973 266.637 176.716 270.951 180.242C275.264 184.161 276.44 190.43 276.44 197.091C290.556 197.091 303.104 193.565 312.515 184.553C327.023 170.447 335.649 128.129 338.786 34.873C346.629 33.3057 351.334 31.7383 354.079 28.6037L325.062 4.70196L310.554 19.9834H238.405L209.389 7.44479V44.6688C209.389 91.2967 201.154 148.112 151.356 195.916L155.669 200.618ZM38.8193 66.6113V145.761C38.8193 163.394 43.1325 168.879 70.1884 168.879H103.91C155.669 168.879 166.256 165.353 166.256 154.382C166.256 149.288 163.512 147.329 154.885 144.586L152.924 144.194H149.395C147.435 145.369 143.906 145.761 141.553 146.153C139.985 146.153 137.24 146.153 134.495 146.545C130.182 146.937 118.811 146.937 106.263 146.937H75.678C64.6988 146.937 63.5225 145.369 63.5225 139.884V66.6113H179.98C185.47 66.6113 189.391 64.6522 190.567 60.342C178.412 49.3707 158.806 33.6975 158.806 33.6975L141.161 54.8564H104.694V14.8896C114.105 13.3223 118.418 9.40395 118.811 3.91831L79.9912 0V54.8564H0L2.7448 66.6113H38.8193ZM305.457 336.583H192.92V286.037H310.946C316.436 286.037 320.357 284.078 321.141 279.768C308.594 268.404 288.596 252.731 288.596 252.731L270.166 275.066H192.92V228.438H326.239C331.728 228.438 335.649 226.478 336.826 222.168C324.278 210.805 303.104 194.74 303.104 194.74L285.067 217.075H31.3691L34.8981 228.438H167.041V275.066H46.2694L49.4064 286.037H167.041V336.583H2.35268L5.4896 347.554H348.197C353.687 347.554 357.608 345.595 358 341.677C345.452 329.53 324.278 313.073 324.278 313.073L305.457 336.583Z" fill="black"/>
</svg>
