<svg width="40" height="40" viewBox="0 0 40 40" fill="none" xmlns="http://www.w3.org/2000/svg">
<path d="M33 18.75C33.6904 18.75 34.25 19.3096 34.25 20C34.25 20.6904 33.6904 21.25 33 21.25V18.75ZM7 20V21.25C6.49442 21.25 6.03863 20.9454 5.84515 20.4784C5.65167 20.0113 5.75862 19.4736 6.11612 19.1161L7 20ZM17 10L16.1161 9.11612C16.4736 8.75862 17.0113 8.65167 17.4784 8.84515C17.9454 9.03863 18.25 9.49442 18.25 10H17ZM12.1161 26.8839C11.628 26.3957 11.628 25.6043 12.1161 25.1161C12.6043 24.628 13.3957 24.628 13.8839 25.1161L12.1161 26.8839ZM17.8839 29.1161C18.372 29.6043 18.372 30.3957 17.8839 30.8839C17.3957 31.372 16.6043 31.372 16.1161 30.8839L17.8839 29.1161ZM18.25 15C18.25 15.6904 17.6904 16.25 17 16.25C16.3096 16.25 15.75 15.6904 15.75 15H18.25ZM33 21.25H7V18.75H33V21.25ZM6.11612 19.1161L16.1161 9.11612L17.8839 10.8839L7.88388 20.8839L6.11612 19.1161ZM13.8839 25.1161L17.8839 29.1161L16.1161 30.8839L12.1161 26.8839L13.8839 25.1161ZM18.25 10V15H15.75V10H18.25Z" fill="#4F4F4F"/>
</svg>
