<svg width="40" height="40" viewBox="0 0 40 40" fill="none" xmlns="http://www.w3.org/2000/svg">
<path d="M7 18.75C6.30964 18.75 5.75 19.3096 5.75 20C5.75 20.6904 6.30964 21.25 7 21.25V18.75ZM33 20V21.25C33.5056 21.25 33.9614 20.9454 34.1548 20.4784C34.3483 20.0113 34.2414 19.4736 33.8839 19.1161L33 20ZM23 10L23.8839 9.11612C23.5264 8.75862 22.9887 8.65167 22.5216 8.84515C22.0546 9.03863 21.75 9.49442 21.75 10H23ZM27.8839 26.8839C28.372 26.3957 28.372 25.6043 27.8839 25.1161C27.3957 24.628 26.6043 24.628 26.1161 25.1161L27.8839 26.8839ZM22.1161 29.1161C21.628 29.6043 21.628 30.3957 22.1161 30.8839C22.6043 31.372 23.3957 31.372 23.8839 30.8839L22.1161 29.1161ZM21.75 15C21.75 15.6904 22.3096 16.25 23 16.25C23.6904 16.25 24.25 15.6904 24.25 15H21.75ZM7 21.25H33V18.75H7V21.25ZM33.8839 19.1161L23.8839 9.11612L22.1161 10.8839L32.1161 20.8839L33.8839 19.1161ZM26.1161 25.1161L22.1161 29.1161L23.8839 30.8839L27.8839 26.8839L26.1161 25.1161ZM21.75 10V15H24.25V10H21.75Z" fill="#4F4F4F"/>
</svg>
