<?xml version="1.0" encoding="UTF-8" standalone="no"?><!-- Generator: Gravit.io --><svg xmlns="http://www.w3.org/2000/svg" xmlns:xlink="http://www.w3.org/1999/xlink" style="isolation:isolate" viewBox="255.118 236.7 340.157 340.157" width="340.157pt" height="340.157pt"><g><circle vector-effect="non-scaling-stroke" cx="425.19685039370086" cy="406.7786730945834" r="170.0787401574803" fill="none"/><path d=" M 432.06 530.281 C 395.209 530.281 391.43 528.307 385.572 522.449 C 391.43 524.622 396.139 518.331 396.139 514.425 C 396.139 510.891 395.958 499.172 395.958 486.71 C 359.493 493.592 350.059 477.596 347.156 469.225 C 345.524 464.947 338.448 451.741 332.28 448.207 C 327.201 445.417 319.944 438.534 332.099 438.348 C 343.528 438.162 351.692 449.137 354.413 453.601 C 367.475 476.108 388.338 469.784 396.683 465.877 C 397.953 456.205 401.763 449.695 405.936 445.975 C 373.643 442.255 339.9 429.42 339.9 372.502 C 339.9 356.32 345.524 342.927 354.776 332.511 C 353.325 328.791 348.245 313.538 356.227 293.078 C 356.227 293.078 368.382 289.172 396.139 308.33 C 407.75 304.982 420.086 303.308 432.423 303.308 C 444.759 303.308 457.095 304.982 468.706 308.33 C 496.463 288.986 508.618 293.078 508.618 293.078 C 516.6 313.538 511.521 328.791 510.069 332.511 C 519.321 342.927 524.945 356.134 524.945 372.502 C 524.945 429.606 491.02 442.255 458.728 445.975 C 463.989 450.625 468.525 459.553 468.525 473.504 C 468.525 493.406 468.343 509.403 468.343 514.425 C 468.343 518.331 472.142 523.937 479.398 522.449 C 472.879 528.969 472.69 530.281 432.06 530.281 Z " fill="rgb(0,0,0)"/></g></svg>