<svg width="358" height="349" viewBox="0 0 358 349" fill="none" xmlns="http://www.w3.org/2000/svg">
<path d="M308.23 37.3929V79.8493H213.42V37.3929H308.23ZM213.42 134.381V91.1451H308.23V134.381H213.42ZM213.42 190.08V145.676H308.23V190.08H213.42ZM213.42 201.376H308.23V223.968H312.132C320.715 223.968 333.2 217.735 333.591 215.009V42.4565C341.394 40.5089 347.636 37.3929 350.368 34.2768L318.764 10.1272L304.328 25.7076H215.371L188.84 13.6328V227.473H192.741C203.276 227.473 213.42 221.631 213.42 218.515V201.376ZM145.141 230.979C166.21 243.833 191.181 268.761 197.813 290.184C225.905 306.154 239.171 245.78 149.043 227.084L145.141 230.979ZM61.2558 250.844C56.5738 280.057 33.9443 304.206 15.6066 312.776C7.80329 317.839 2.73115 325.629 5.85247 333.42C10.5344 341.989 24.5804 340.431 35.1148 333.809C51.5017 323.292 73.3509 295.248 67.8886 251.623L61.2558 250.844ZM106.515 113.347C122.902 126.59 140.849 147.624 146.702 164.373C172.063 180.732 189.23 129.317 106.515 106.336V77.1228H168.161C173.623 77.1228 177.525 75.1752 178.695 70.8906C166.21 59.2054 146.702 43.2355 146.702 43.2355L129.535 65.827H106.515V14.8013C116.269 13.2433 119.78 9.73774 120.561 4.28461L81.9345 0V65.827H5.07214L7.80329 77.1228H72.5706C58.1345 123.864 33.164 169.047 0 202.934L5.07214 208.777C37.4558 184.627 63.2066 154.635 81.9345 120.748V229.031H87.0067C95.9804 229.031 106.515 223.189 106.515 219.683V113.347ZM271.164 277.72H266.092C261.8 297.585 257.509 314.723 254.387 320.566C252.436 324.461 250.876 325.24 245.804 325.629C239.171 326.408 221.613 326.408 198.594 326.408H148.653C131.095 326.408 129.144 325.24 129.144 319.787V255.518C136.167 254.349 139.679 250.454 140.459 246.17L103.784 242.275V324.071C103.784 343.936 110.417 349 144.751 349H198.204C270.384 349 283.65 344.715 283.65 333.03C283.65 327.967 280.918 325.24 271.945 322.513L271.164 277.72ZM269.994 251.233C296.135 270.319 326.958 303.817 334.371 331.472C365.584 351.727 382.751 281.225 274.286 247.338L269.994 251.233Z" fill="black"/>
</svg>
